<svg width="269" height="127" viewBox="0 0 269 127" fill="none" xmlns="http://www.w3.org/2000/svg">
<ellipse cx="64" cy="63.5" rx="64" ry="63.5" fill="#070707"/>
<ellipse cx="72.5" cy="63.5" rx="64.5" ry="63.5" fill="#AD241B"/>
<path d="M64.486 83L65.4987 60.4927L65.6947 52.1953L71.7053 79.178H80.2313L85.2293 52.1953L85.6213 60.4927L87.2873 83H97.4467L94.6373 44.7147H80.9827L78.4347 57.5853L77.1933 64.0533L75.8867 57.5527L73.012 44.7147H57.6913L54.6533 83H64.486ZM113.799 79.766C111.796 79.766 110.794 77.708 110.794 73.592V62.9753C110.794 61.5816 111.055 60.5036 111.578 59.7413C112.1 58.9791 112.83 58.598 113.766 58.598C115.77 58.598 116.772 60.7213 116.772 64.968V75.2907C116.772 76.6844 116.51 77.7842 115.988 78.59C115.487 79.374 114.757 79.766 113.799 79.766ZM113.538 83.686C118.699 83.686 122.478 82.4882 124.873 80.0927C127.29 77.6971 128.499 73.9949 128.499 68.986C128.499 64.1513 127.356 60.5471 125.069 58.1733C122.804 55.7778 119.113 54.58 113.995 54.58C108.747 54.58 104.957 55.8322 102.627 58.3367C100.297 60.8193 99.1318 64.5216 99.1318 69.4433C99.1318 74.4087 100.286 78.0238 102.594 80.2887C104.903 82.5536 108.551 83.686 113.538 83.686ZM138.395 83H148.685L157.015 55.2333H148.195L145.778 65.262L144.112 73.9187L142.609 65.262L140.518 55.2333H128.791L138.395 83ZM158.855 83H169.373V55.2333H163.918L156.895 57.1607V60.656L158.855 61.8647V83ZM163.591 52.228H164.833L170.419 46.838V45.6947L164.833 40.3373H163.591L158.234 45.6947V46.838L163.591 52.228ZM188.547 66.1113H183.582V63.3673C183.582 62.5833 183.604 61.9409 183.647 61.44C183.713 60.9173 183.843 60.4164 184.039 59.9373C184.235 59.4364 184.54 59.0771 184.954 58.8593C185.368 58.6198 185.901 58.5 186.555 58.5C187.317 58.5 187.84 59.0771 188.123 60.2313C188.406 61.3856 188.547 63.3456 188.547 66.1113ZM185.934 83.686C187.241 83.686 188.613 83.5336 190.05 83.2287C191.487 82.9238 192.979 82.3358 194.525 81.4647C196.093 80.5718 197.28 79.472 198.086 78.1653L196.159 74.866C195.549 75.4322 194.787 75.9222 193.872 76.336C192.979 76.7498 192.086 77.0547 191.193 77.2507C190.322 77.4467 189.506 77.5447 188.743 77.5447C187.959 77.5447 187.295 77.4793 186.751 77.3487C186.206 77.218 185.673 76.9567 185.15 76.5647C184.627 76.1727 184.224 75.5629 183.941 74.7353C183.68 73.9078 183.549 72.8516 183.549 71.5667V70.946H198.478V67.32C198.478 62.8556 197.552 59.6216 195.701 57.618C193.85 55.5927 190.78 54.58 186.489 54.58C182.025 54.58 178.551 55.8322 176.069 58.3367C173.586 60.8411 172.345 64.5324 172.345 69.4107C172.345 71.4578 172.584 73.3198 173.063 74.9967C173.542 76.6518 174.294 78.1436 175.317 79.472C176.363 80.8004 177.778 81.8349 179.564 82.5753C181.372 83.3158 183.495 83.686 185.934 83.686ZM210.608 83.686C219.036 83.686 223.25 80.3322 223.25 73.6247C223.25 71.3162 222.673 69.3889 221.519 67.8427C220.365 66.2964 218.513 65.0987 215.965 64.2493C215.508 64.1187 214.964 63.9771 214.332 63.8247C213.701 63.6504 213.211 63.5198 212.862 63.4327C212.514 63.3238 212.154 63.1931 211.784 63.0407C211.436 62.8664 211.185 62.6704 211.033 62.4527C210.88 62.2131 210.804 61.9191 210.804 61.5707C210.804 60.3511 211.839 59.7413 213.907 59.7413C216.434 59.7413 218.415 60.4491 219.853 61.8647L221.29 57.1933C221.29 57.1933 221.094 57.0082 220.702 56.638C218.938 55.266 216.194 54.58 212.47 54.58C210.292 54.58 208.321 54.8958 206.557 55.5273C204.793 56.1589 203.345 57.1824 202.213 58.598C201.08 59.9918 200.514 61.6687 200.514 63.6287C200.514 68.4198 203.051 71.5776 208.125 73.102C210.085 73.69 211.501 74.2127 212.372 74.67C213.243 75.1056 213.679 75.6064 213.679 76.1727C213.679 76.7607 213.428 77.218 212.927 77.5447C212.448 77.8713 211.555 78.0347 210.249 78.0347C208.441 78.0347 206.666 77.7733 204.924 77.2507C203.204 76.728 201.973 76.1073 201.233 75.3887L200.383 80.648C200.971 81.3013 202.311 81.9764 204.401 82.6733C206.492 83.3484 208.561 83.686 210.608 83.686Z" fill="#070707"/>
</svg>
