<svg width="175" height="39" viewBox="0 0 175 39" fill="none" xmlns="http://www.w3.org/2000/svg">
<path d="M16.6836 16.3984C16.6836 17.0781 16.625 17.8516 16.5078 18.7188C16.4141 19.5625 16.25 20.4297 16.0156 21.3203C15.8047 22.2109 15.5117 23.0781 15.1367 23.9219C14.7852 24.7656 14.3398 25.5273 13.8008 26.207C13.2852 26.8633 12.6758 27.3906 11.9727 27.7891C11.293 28.1875 10.4961 28.3867 9.58203 28.3867C8.62109 28.3867 7.74219 28.1641 6.94531 27.7188C6.17188 27.2734 5.50391 26.6641 4.94141 25.8906C4.87109 26.5234 4.61328 27.0859 4.16797 27.5781C3.72266 28.0469 3.16016 28.2812 2.48047 28.2812C2.08203 28.2812 1.74219 28.082 1.46094 27.6836C1.20312 27.2852 0.992188 26.7812 0.828125 26.1719C0.664062 25.5391 0.535156 24.8477 0.441406 24.0977C0.371094 23.3477 0.324219 22.6211 0.300781 21.918C0.277344 21.2148 0.265625 20.582 0.265625 20.0195C0.265625 19.457 0.265625 19.0586 0.265625 18.8242C0.265625 18.0273 0.265625 17.2305 0.265625 16.4336C0.289062 15.6367 0.3125 14.8281 0.335938 14.0078C0.335938 13.6094 0.324219 13.0117 0.300781 12.2148C0.300781 11.418 0.3125 10.5391 0.335938 9.57812C0.359375 8.59375 0.40625 7.59766 0.476562 6.58984C0.570312 5.55859 0.722656 4.62109 0.933594 3.77734C1.14453 2.93359 1.4375 2.24219 1.8125 1.70312C2.1875 1.16406 2.66797 0.882812 3.25391 0.859375C3.72266 0.859375 4.12109 1.02344 4.44922 1.35156C4.77734 1.67969 5.04688 2.11328 5.25781 2.65234C5.49219 3.19141 5.66797 3.80078 5.78516 4.48047C5.92578 5.13672 6.01953 5.80469 6.06641 6.48438C6.13672 7.14062 6.17188 7.77344 6.17188 8.38281C6.19531 8.96875 6.20703 9.44922 6.20703 9.82422C6.20703 9.89453 6.19531 10.0586 6.17188 10.3164C6.17188 10.5508 6.17188 10.8086 6.17188 11.0898C6.17188 11.3711 6.17188 11.6289 6.17188 11.8633C6.17188 12.0742 6.17188 12.1914 6.17188 12.2148C6.38281 11.7695 6.6875 11.3359 7.08594 10.9141C7.48438 10.4922 7.92969 10.1172 8.42188 9.78906C8.91406 9.46094 9.42969 9.19141 9.96875 8.98047C10.5078 8.76953 11.0234 8.66406 11.5156 8.66406C12.5 8.66406 13.3203 8.92188 13.9766 9.4375C14.6562 9.92969 15.1953 10.5625 15.5938 11.3359C15.9922 12.1094 16.2734 12.9531 16.4375 13.8672C16.6016 14.7578 16.6836 15.6016 16.6836 16.3984ZM11.5156 17.4531C11.5156 17.1719 11.4922 16.8672 11.4453 16.5391C11.4219 16.2109 11.3398 15.9062 11.1992 15.625C11.082 15.3438 10.9062 15.1094 10.6719 14.9219C10.4609 14.7344 10.1797 14.6406 9.82812 14.6406C9.45312 14.6406 9.07812 14.7227 8.70312 14.8867C8.35156 15.0508 8.01172 15.2617 7.68359 15.5195C7.35547 15.7773 7.05078 16.0586 6.76953 16.3633C6.48828 16.6445 6.24219 16.9258 6.03125 17.207L5.67969 20.3359C6.05469 20.875 6.51172 21.3086 7.05078 21.6367C7.58984 21.9414 8.19922 22.0938 8.87891 22.0938C9.39453 22.0938 9.81641 21.9297 10.1445 21.6016C10.4961 21.2734 10.7656 20.875 10.9531 20.4062C11.1641 19.9141 11.3047 19.3984 11.375 18.8594C11.4688 18.3203 11.5156 17.8516 11.5156 17.4531ZM25.5078 29.0195C24.3125 29.0195 23.2695 28.7031 22.3789 28.0703C21.4883 27.4375 20.7383 26.6289 20.1289 25.6445C19.5195 24.6602 19.0625 23.5703 18.7578 22.375C18.4531 21.1562 18.3008 19.9609 18.3008 18.7891C18.3008 17.5469 18.4531 16.2695 18.7578 14.957C19.0625 13.6211 19.5312 12.4141 20.1641 11.3359C20.7969 10.2344 21.6055 9.34375 22.5898 8.66406C23.5742 7.96094 24.7461 7.60938 26.1055 7.60938C27.418 7.60938 28.5312 7.97266 29.4453 8.69922C30.3828 9.40234 31.1328 10.293 31.6953 11.3711C32.2578 12.4258 32.6562 13.5859 32.8906 14.8516C33.125 16.1172 33.207 17.3125 33.1367 18.4375C33.0664 19.6797 32.8672 20.9336 32.5391 22.1992C32.2344 23.4648 31.7773 24.6016 31.168 25.6094C30.5586 26.6172 29.7852 27.4375 28.8477 28.0703C27.9102 28.7031 26.7969 29.0195 25.5078 29.0195ZM25.8594 13.1289C25.5078 13.1289 25.1914 13.3164 24.9102 13.6914C24.6523 14.0664 24.4297 14.5234 24.2422 15.0625C24.0781 15.6016 23.9492 16.1758 23.8555 16.7852C23.7617 17.3711 23.7148 17.8867 23.7148 18.332C23.7148 18.8945 23.7617 19.5039 23.8555 20.1602C23.9727 20.8164 24.125 21.4258 24.3125 21.9883C24.5 22.5273 24.7227 22.9844 24.9805 23.3594C25.2617 23.7109 25.5781 23.8867 25.9297 23.8867C26.3047 23.8867 26.6211 23.7109 26.8789 23.3594C27.1602 23.0078 27.3828 22.5625 27.5469 22.0234C27.7109 21.4844 27.8281 20.8984 27.8984 20.2656C27.9688 19.6094 28.0039 19 28.0039 18.4375C28.0039 17.9219 27.957 17.3594 27.8633 16.75C27.7695 16.1172 27.6289 15.5312 27.4414 14.9922C27.2773 14.4531 27.0547 14.0078 26.7734 13.6562C26.5156 13.3047 26.2109 13.1289 25.8594 13.1289ZM41.6094 29.0195C40.4141 29.0195 39.3711 28.7031 38.4805 28.0703C37.5898 27.4375 36.8398 26.6289 36.2305 25.6445C35.6211 24.6602 35.1641 23.5703 34.8594 22.375C34.5547 21.1562 34.4023 19.9609 34.4023 18.7891C34.4023 17.5469 34.5547 16.2695 34.8594 14.957C35.1641 13.6211 35.6328 12.4141 36.2656 11.3359C36.8984 10.2344 37.707 9.34375 38.6914 8.66406C39.6758 7.96094 40.8477 7.60938 42.207 7.60938C43.5195 7.60938 44.6328 7.97266 45.5469 8.69922C46.4844 9.40234 47.2344 10.293 47.7969 11.3711C48.3594 12.4258 48.7578 13.5859 48.9922 14.8516C49.2266 16.1172 49.3086 17.3125 49.2383 18.4375C49.168 19.6797 48.9688 20.9336 48.6406 22.1992C48.3359 23.4648 47.8789 24.6016 47.2695 25.6094C46.6602 26.6172 45.8867 27.4375 44.9492 28.0703C44.0117 28.7031 42.8984 29.0195 41.6094 29.0195ZM41.9609 13.1289C41.6094 13.1289 41.293 13.3164 41.0117 13.6914C40.7539 14.0664 40.5312 14.5234 40.3438 15.0625C40.1797 15.6016 40.0508 16.1758 39.957 16.7852C39.8633 17.3711 39.8164 17.8867 39.8164 18.332C39.8164 18.8945 39.8633 19.5039 39.957 20.1602C40.0742 20.8164 40.2266 21.4258 40.4141 21.9883C40.6016 22.5273 40.8242 22.9844 41.082 23.3594C41.3633 23.7109 41.6797 23.8867 42.0312 23.8867C42.4062 23.8867 42.7227 23.7109 42.9805 23.3594C43.2617 23.0078 43.4844 22.5625 43.6484 22.0234C43.8125 21.4844 43.9297 20.8984 44 20.2656C44.0703 19.6094 44.1055 19 44.1055 18.4375C44.1055 17.9219 44.0586 17.3594 43.9648 16.75C43.8711 16.1172 43.7305 15.5312 43.543 14.9922C43.3789 14.4531 43.1562 14.0078 42.875 13.6562C42.6172 13.3047 42.3125 13.1289 41.9609 13.1289ZM66.6406 9.08594C66.6406 9.74219 66.4648 10.4102 66.1133 11.0898C65.7852 11.7695 65.375 12.4492 64.8828 13.1289C64.4141 13.7852 63.9102 14.418 63.3711 15.0273C62.8555 15.6133 62.3984 16.1523 62 16.6445C62.3281 17.1602 62.7383 17.8516 63.2305 18.7188C63.7227 19.5625 64.1914 20.4648 64.6367 21.4258C65.082 22.3867 65.457 23.3242 65.7617 24.2383C66.0898 25.1523 66.2539 25.9141 66.2539 26.5234C66.2539 27.0156 66.1016 27.4727 65.7969 27.8945C65.4922 28.293 65.0703 28.4922 64.5312 28.4922C64.1328 28.4922 63.7227 28.3281 63.3008 28C62.9023 27.6484 62.4922 27.2031 62.0703 26.6641C61.6719 26.1016 61.2852 25.4805 60.9102 24.8008C60.5352 24.1211 60.1836 23.4531 59.8555 22.7969C59.5508 22.1406 59.2695 21.5312 59.0117 20.9688C58.7773 20.3828 58.5898 19.9141 58.4492 19.5625C58.1445 19.8672 57.8164 20.125 57.4648 20.3359C57.1367 20.5234 56.8086 20.7461 56.4805 21.0039C56.4805 21.4961 56.457 22.1875 56.4102 23.0781C56.3867 23.9688 56.2812 24.8477 56.0938 25.7148C55.9297 26.582 55.6484 27.3438 55.25 28C54.8516 28.6328 54.2656 28.9492 53.4922 28.9492C52.8828 28.9492 52.4141 28.668 52.0859 28.1055C51.7578 27.5664 51.5117 26.9336 51.3477 26.207C51.207 25.457 51.125 24.707 51.1016 23.957C51.0781 23.1836 51.0664 22.5977 51.0664 22.1992C51.0664 20.4648 51.1133 18.7305 51.207 16.9961C51.3008 15.2617 51.3594 13.5273 51.3828 11.793C51.3828 11.3945 51.3828 10.8789 51.3828 10.2461C51.4062 9.58984 51.4531 8.88672 51.5234 8.13672C51.5938 7.38672 51.6992 6.625 51.8398 5.85156C51.9805 5.07812 52.1797 4.38672 52.4375 3.77734C52.6953 3.14453 53.0234 2.64062 53.4219 2.26562C53.8438 1.86719 54.3477 1.66797 54.9336 1.66797C55.3555 1.66797 55.707 1.83203 55.9883 2.16016C56.293 2.46484 56.5273 2.86328 56.6914 3.35547C56.8789 3.84766 57.0078 4.39844 57.0781 5.00781C57.1719 5.61719 57.2305 6.22656 57.2539 6.83594C57.3008 7.42187 57.3242 7.97266 57.3242 8.48828C57.3242 9.00391 57.3242 9.41406 57.3242 9.71875C57.3242 9.92969 57.3125 10.2461 57.2891 10.668C57.2891 11.0664 57.2773 11.4883 57.2539 11.9336C57.2539 12.3789 57.2539 12.7891 57.2539 13.1641C57.2539 13.5391 57.2773 13.8086 57.3242 13.9727C57.4883 13.9727 57.7344 13.8203 58.0625 13.5156C58.3906 13.1875 58.7656 12.7773 59.1875 12.2852C59.6328 11.793 60.1016 11.2773 60.5938 10.7383C61.1094 10.1758 61.625 9.64844 62.1406 9.15625C62.6797 8.66406 63.207 8.26562 63.7227 7.96094C64.2383 7.63281 64.7188 7.46875 65.1641 7.46875C65.6328 7.46875 65.9961 7.63281 66.2539 7.96094C66.5117 8.28906 66.6406 8.66406 66.6406 9.08594ZM91.9531 9.08594C91.9531 9.74219 91.7773 10.4102 91.4258 11.0898C91.0977 11.7695 90.6875 12.4492 90.1953 13.1289C89.7266 13.7852 89.2227 14.418 88.6836 15.0273C88.168 15.6133 87.7109 16.1523 87.3125 16.6445C87.6406 17.1602 88.0508 17.8516 88.543 18.7188C89.0352 19.5625 89.5039 20.4648 89.9492 21.4258C90.3945 22.3867 90.7695 23.3242 91.0742 24.2383C91.4023 25.1523 91.5664 25.9141 91.5664 26.5234C91.5664 27.0156 91.4141 27.4727 91.1094 27.8945C90.8047 28.293 90.3828 28.4922 89.8438 28.4922C89.4453 28.4922 89.0352 28.3281 88.6133 28C88.2148 27.6484 87.8047 27.2031 87.3828 26.6641C86.9844 26.1016 86.5977 25.4805 86.2227 24.8008C85.8477 24.1211 85.4961 23.4531 85.168 22.7969C84.8633 22.1406 84.582 21.5312 84.3242 20.9688C84.0898 20.3828 83.9023 19.9141 83.7617 19.5625C83.457 19.8672 83.1289 20.125 82.7773 20.3359C82.4492 20.5234 82.1211 20.7461 81.793 21.0039C81.793 21.4961 81.7695 22.1875 81.7227 23.0781C81.6992 23.9688 81.5938 24.8477 81.4062 25.7148C81.2422 26.582 80.9609 27.3438 80.5625 28C80.1641 28.6328 79.5781 28.9492 78.8047 28.9492C78.1953 28.9492 77.7266 28.668 77.3984 28.1055C77.0703 27.5664 76.8242 26.9336 76.6602 26.207C76.5195 25.457 76.4375 24.707 76.4141 23.957C76.3906 23.1836 76.3789 22.5977 76.3789 22.1992C76.3789 20.4648 76.4258 18.7305 76.5195 16.9961C76.6133 15.2617 76.6719 13.5273 76.6953 11.793C76.6953 11.3945 76.6953 10.8789 76.6953 10.2461C76.7188 9.58984 76.7656 8.88672 76.8359 8.13672C76.9062 7.38672 77.0117 6.625 77.1523 5.85156C77.293 5.07812 77.4922 4.38672 77.75 3.77734C78.0078 3.14453 78.3359 2.64062 78.7344 2.26562C79.1562 1.86719 79.6602 1.66797 80.2461 1.66797C80.668 1.66797 81.0195 1.83203 81.3008 2.16016C81.6055 2.46484 81.8398 2.86328 82.0039 3.35547C82.1914 3.84766 82.3203 4.39844 82.3906 5.00781C82.4844 5.61719 82.543 6.22656 82.5664 6.83594C82.6133 7.42187 82.6367 7.97266 82.6367 8.48828C82.6367 9.00391 82.6367 9.41406 82.6367 9.71875C82.6367 9.92969 82.625 10.2461 82.6016 10.668C82.6016 11.0664 82.5898 11.4883 82.5664 11.9336C82.5664 12.3789 82.5664 12.7891 82.5664 13.1641C82.5664 13.5391 82.5898 13.8086 82.6367 13.9727C82.8008 13.9727 83.0469 13.8203 83.375 13.5156C83.7031 13.1875 84.0781 12.7773 84.5 12.2852C84.9453 11.793 85.4141 11.2773 85.9062 10.7383C86.4219 10.1758 86.9375 9.64844 87.4531 9.15625C87.9922 8.66406 88.5195 8.26562 89.0352 7.96094C89.5508 7.63281 90.0312 7.46875 90.4766 7.46875C90.9453 7.46875 91.3086 7.63281 91.5664 7.96094C91.8242 8.28906 91.9531 8.66406 91.9531 9.08594ZM107.738 21.7422C107.738 22.5391 107.48 23.3242 106.965 24.0977C106.473 24.8477 105.84 25.5273 105.066 26.1367C104.316 26.7227 103.508 27.2031 102.641 27.5781C101.773 27.9297 100.977 28.1055 100.25 28.1055C99.0078 28.1055 97.8945 27.8008 96.9102 27.1914C95.9492 26.5586 95.1406 25.7617 94.4844 24.8008C93.8281 23.8398 93.3242 22.7852 92.9727 21.6367C92.6445 20.4648 92.4805 19.3281 92.4805 18.2266C92.4805 17.0547 92.6445 15.8008 92.9727 14.4648C93.3008 13.1289 93.793 11.8984 94.4492 10.7734C95.1289 9.64844 95.9727 8.71094 96.9805 7.96094C98.0117 7.21094 99.2305 6.83594 100.637 6.83594C101.434 6.83594 102.195 6.97656 102.922 7.25781C103.648 7.51563 104.281 7.89062 104.82 8.38281C105.359 8.875 105.793 9.46094 106.121 10.1406C106.449 10.8203 106.613 11.582 106.613 12.4258C106.613 13.5273 106.379 14.5586 105.91 15.5195C105.441 16.4805 104.82 17.3125 104.047 18.0156C103.273 18.7188 102.383 19.293 101.375 19.7383C100.367 20.1602 99.3359 20.3945 98.2812 20.4414C98.375 21.1211 98.6445 21.6133 99.0898 21.918C99.5586 22.2227 100.109 22.375 100.742 22.375C101.211 22.375 101.668 22.2578 102.113 22.0234C102.559 21.7891 102.992 21.5312 103.414 21.25C103.836 20.9453 104.246 20.6758 104.645 20.4414C105.066 20.207 105.488 20.0898 105.91 20.0898C106.379 20.0898 106.801 20.2422 107.176 20.5469C107.551 20.8516 107.738 21.25 107.738 21.7422ZM102.043 13.1289C102.043 12.8242 101.961 12.5078 101.797 12.1797C101.633 11.8516 101.375 11.6875 101.023 11.6875C100.508 11.6875 100.074 11.8281 99.7227 12.1094C99.3711 12.3672 99.0781 12.707 98.8438 13.1289C98.6094 13.5273 98.4219 13.9609 98.2812 14.4297C98.1641 14.8984 98.0938 15.332 98.0703 15.7305C98.3984 15.6602 98.7852 15.5664 99.2305 15.4492C99.6992 15.332 100.133 15.1797 100.531 14.9922C100.953 14.7812 101.305 14.5234 101.586 14.2188C101.891 13.9141 102.043 13.5508 102.043 13.1289ZM123.875 21.7422C123.875 22.5391 123.617 23.3242 123.102 24.0977C122.609 24.8477 121.977 25.5273 121.203 26.1367C120.453 26.7227 119.645 27.2031 118.777 27.5781C117.91 27.9297 117.113 28.1055 116.387 28.1055C115.145 28.1055 114.031 27.8008 113.047 27.1914C112.086 26.5586 111.277 25.7617 110.621 24.8008C109.965 23.8398 109.461 22.7852 109.109 21.6367C108.781 20.4648 108.617 19.3281 108.617 18.2266C108.617 17.0547 108.781 15.8008 109.109 14.4648C109.438 13.1289 109.93 11.8984 110.586 10.7734C111.266 9.64844 112.109 8.71094 113.117 7.96094C114.148 7.21094 115.367 6.83594 116.773 6.83594C117.57 6.83594 118.332 6.97656 119.059 7.25781C119.785 7.51563 120.418 7.89062 120.957 8.38281C121.496 8.875 121.93 9.46094 122.258 10.1406C122.586 10.8203 122.75 11.582 122.75 12.4258C122.75 13.5273 122.516 14.5586 122.047 15.5195C121.578 16.4805 120.957 17.3125 120.184 18.0156C119.41 18.7188 118.52 19.293 117.512 19.7383C116.504 20.1602 115.473 20.3945 114.418 20.4414C114.512 21.1211 114.781 21.6133 115.227 21.918C115.695 22.2227 116.246 22.375 116.879 22.375C117.348 22.375 117.805 22.2578 118.25 22.0234C118.695 21.7891 119.129 21.5312 119.551 21.25C119.973 20.9453 120.383 20.6758 120.781 20.4414C121.203 20.207 121.625 20.0898 122.047 20.0898C122.516 20.0898 122.938 20.2422 123.312 20.5469C123.688 20.8516 123.875 21.25 123.875 21.7422ZM118.18 13.1289C118.18 12.8242 118.098 12.5078 117.934 12.1797C117.77 11.8516 117.512 11.6875 117.16 11.6875C116.645 11.6875 116.211 11.8281 115.859 12.1094C115.508 12.3672 115.215 12.707 114.98 13.1289C114.746 13.5273 114.559 13.9609 114.418 14.4297C114.301 14.8984 114.23 15.332 114.207 15.7305C114.535 15.6602 114.922 15.5664 115.367 15.4492C115.836 15.332 116.27 15.1797 116.668 14.9922C117.09 14.7812 117.441 14.5234 117.723 14.2188C118.027 13.9141 118.18 13.5508 118.18 13.1289ZM141.383 17.5234C141.383 18.5547 141.266 19.6914 141.031 20.9336C140.82 22.1523 140.445 23.2891 139.906 24.3438C139.391 25.3984 138.699 26.2773 137.832 26.9805C136.988 27.6836 135.922 28.0352 134.633 28.0352C134.305 28.0352 133.965 28.0117 133.613 27.9648C133.262 27.918 132.922 27.8359 132.594 27.7188C132.289 27.6016 132.008 27.4492 131.75 27.2617C131.492 27.0508 131.293 26.7812 131.152 26.4531L130.836 31.5156C130.812 32.0547 130.789 32.6992 130.766 33.4492C130.766 34.1992 130.672 34.9141 130.484 35.5938C130.32 36.2734 130.027 36.8477 129.605 37.3164C129.207 37.8086 128.621 38.0547 127.848 38.0547C127.402 38.0547 127.027 37.8203 126.723 37.3516C126.418 36.9062 126.172 36.332 125.984 35.6289C125.82 34.9258 125.691 34.1406 125.598 33.2734C125.504 32.4062 125.445 31.5742 125.422 30.7773C125.398 29.9805 125.387 29.2539 125.387 28.5977C125.387 27.9414 125.387 27.4609 125.387 27.1562C125.387 25.5859 125.375 24.0273 125.352 22.4805C125.328 20.9102 125.316 19.3398 125.316 17.7695C125.316 17.4883 125.316 17.0547 125.316 16.4688C125.316 15.8594 125.34 15.2031 125.387 14.5C125.434 13.7969 125.504 13.0703 125.598 12.3203C125.715 11.5703 125.879 10.8906 126.09 10.2812C126.301 9.64844 126.57 9.14453 126.898 8.76953C127.227 8.37109 127.625 8.17188 128.094 8.17188C128.398 8.17188 128.668 8.26562 128.902 8.45312C129.16 8.61719 129.371 8.83984 129.535 9.12109C129.723 9.37891 129.875 9.66016 129.992 9.96484C130.109 10.2695 130.203 10.5508 130.273 10.8086C131 9.98828 131.832 9.36719 132.77 8.94531C133.73 8.52344 134.75 8.3125 135.828 8.3125C136.953 8.3125 137.867 8.62891 138.57 9.26172C139.297 9.89453 139.859 10.6797 140.258 11.6172C140.68 12.5547 140.973 13.5625 141.137 14.6406C141.301 15.6953 141.383 16.6562 141.383 17.5234ZM136.355 17.2422C136.355 16.8906 136.32 16.5391 136.25 16.1875C136.203 15.8125 136.098 15.4727 135.934 15.168C135.793 14.8398 135.582 14.582 135.301 14.3945C135.02 14.1836 134.668 14.0781 134.246 14.0781C133.684 14.0781 133.086 14.2656 132.453 14.6406C131.844 14.9922 131.387 15.4023 131.082 15.8711C130.965 16.0586 130.895 16.3633 130.871 16.7852C130.848 17.207 130.836 17.5234 130.836 17.7344C130.836 17.8984 130.836 18.1211 130.836 18.4023C130.859 18.6602 130.883 18.9297 130.906 19.2109C130.93 19.4922 130.953 19.7617 130.977 20.0195C131.023 20.2773 131.082 20.4766 131.152 20.6172C131.223 20.8281 131.375 21.0273 131.609 21.2148C131.844 21.3789 132.102 21.5312 132.383 21.6719C132.664 21.8125 132.945 21.918 133.227 21.9883C133.531 22.0586 133.789 22.0938 134 22.0938C134.492 22.0938 134.891 21.9062 135.195 21.5312C135.5 21.1562 135.734 20.7109 135.898 20.1953C136.086 19.6797 136.203 19.1523 136.25 18.6133C136.32 18.0508 136.355 17.5938 136.355 17.2422ZM158.258 21.7422C158.258 22.5391 158 23.3242 157.484 24.0977C156.992 24.8477 156.359 25.5273 155.586 26.1367C154.836 26.7227 154.027 27.2031 153.16 27.5781C152.293 27.9297 151.496 28.1055 150.77 28.1055C149.527 28.1055 148.414 27.8008 147.43 27.1914C146.469 26.5586 145.66 25.7617 145.004 24.8008C144.348 23.8398 143.844 22.7852 143.492 21.6367C143.164 20.4648 143 19.3281 143 18.2266C143 17.0547 143.164 15.8008 143.492 14.4648C143.82 13.1289 144.312 11.8984 144.969 10.7734C145.648 9.64844 146.492 8.71094 147.5 7.96094C148.531 7.21094 149.75 6.83594 151.156 6.83594C151.953 6.83594 152.715 6.97656 153.441 7.25781C154.168 7.51563 154.801 7.89062 155.34 8.38281C155.879 8.875 156.312 9.46094 156.641 10.1406C156.969 10.8203 157.133 11.582 157.133 12.4258C157.133 13.5273 156.898 14.5586 156.43 15.5195C155.961 16.4805 155.34 17.3125 154.566 18.0156C153.793 18.7188 152.902 19.293 151.895 19.7383C150.887 20.1602 149.855 20.3945 148.801 20.4414C148.895 21.1211 149.164 21.6133 149.609 21.918C150.078 22.2227 150.629 22.375 151.262 22.375C151.73 22.375 152.188 22.2578 152.633 22.0234C153.078 21.7891 153.512 21.5312 153.934 21.25C154.355 20.9453 154.766 20.6758 155.164 20.4414C155.586 20.207 156.008 20.0898 156.43 20.0898C156.898 20.0898 157.32 20.2422 157.695 20.5469C158.07 20.8516 158.258 21.25 158.258 21.7422ZM152.562 13.1289C152.562 12.8242 152.48 12.5078 152.316 12.1797C152.152 11.8516 151.895 11.6875 151.543 11.6875C151.027 11.6875 150.594 11.8281 150.242 12.1094C149.891 12.3672 149.598 12.707 149.363 13.1289C149.129 13.5273 148.941 13.9609 148.801 14.4297C148.684 14.8984 148.613 15.332 148.59 15.7305C148.918 15.6602 149.305 15.5664 149.75 15.4492C150.219 15.332 150.652 15.1797 151.051 14.9922C151.473 14.7812 151.824 14.5234 152.105 14.2188C152.41 13.9141 152.562 13.5508 152.562 13.1289ZM171.863 14.8516C171.535 14.875 171.254 14.8516 171.02 14.7812C170.785 14.6875 170.551 14.5938 170.316 14.5C170.105 14.4062 169.895 14.3242 169.684 14.2539C169.473 14.1602 169.238 14.125 168.98 14.1484C168.512 14.1719 168.09 14.3008 167.715 14.5352C167.363 14.7695 167.035 15.0625 166.73 15.4141C166.449 15.7656 166.203 16.1641 165.992 16.6094C165.781 17.0312 165.617 17.4531 165.5 17.875C165.43 18.1562 165.371 18.5898 165.324 19.1758C165.301 19.7383 165.289 20.3477 165.289 21.0039C165.266 21.6836 165.254 22.3281 165.254 22.9375C165.254 23.5469 165.23 24.0273 165.184 24.3789C165.16 24.7539 165.102 25.1992 165.008 25.7148C164.914 26.207 164.762 26.6758 164.551 27.1211C164.363 27.5664 164.105 27.9414 163.777 28.2461C163.449 28.5508 163.027 28.7031 162.512 28.7031C162.113 28.7031 161.762 28.5859 161.457 28.3516C161.176 28.1172 160.93 27.8125 160.719 27.4375C160.531 27.0391 160.367 26.582 160.227 26.0664C160.109 25.5508 160.016 25.0234 159.945 24.4844C159.875 23.9219 159.816 23.3594 159.77 22.7969C159.746 22.2344 159.723 21.707 159.699 21.2148C159.699 20.6992 159.699 20.2305 159.699 19.8086C159.723 19.3867 159.734 19.0469 159.734 18.7891C159.711 17.9688 159.664 17.1484 159.594 16.3281C159.547 15.4844 159.523 14.6523 159.523 13.832C159.523 13.3164 159.547 12.7422 159.594 12.1094C159.641 11.4766 159.77 10.8906 159.98 10.3516C160.191 9.78906 160.496 9.32031 160.895 8.94531C161.316 8.57031 161.891 8.38281 162.617 8.38281C163.016 8.38281 163.355 8.51172 163.637 8.76953C163.918 9.02734 164.141 9.34375 164.305 9.71875C164.492 10.0938 164.633 10.4922 164.727 10.9141C164.82 11.3359 164.879 11.7227 164.902 12.0742C165.465 11.1602 166.098 10.4219 166.801 9.85938C167.504 9.27344 168.418 8.95703 169.543 8.91016C170.105 8.88672 170.656 8.94531 171.195 9.08594C171.758 9.20312 172.262 9.41406 172.707 9.71875C173.176 10 173.551 10.375 173.832 10.8438C174.137 11.3125 174.301 11.8633 174.324 12.4961C174.371 13.2461 174.148 13.8203 173.656 14.2188C173.164 14.6172 172.566 14.8281 171.863 14.8516Z" fill="#2F2750"/>
</svg>
