<svg width="19" height="27" viewBox="0 0 19 27" fill="none" xmlns="http://www.w3.org/2000/svg">
<path d="M5.62504 25.125C5.62504 25.8354 6.20629 26.4167 6.91671 26.4167H12.0834C12.7938 26.4167 13.375 25.8354 13.375 25.125V23.8333H5.62504V25.125ZM9.50004 0.583328C4.51421 0.583328 0.458374 4.63916 0.458374 9.62499C0.458374 12.6992 1.99546 15.3987 4.33337 17.0392V19.9583C4.33337 20.6687 4.91462 21.25 5.62504 21.25H13.375C14.0855 21.25 14.6667 20.6687 14.6667 19.9583V17.0392C17.0046 15.3987 18.5417 12.6992 18.5417 9.62499C18.5417 4.63916 14.4859 0.583328 9.50004 0.583328ZM13.1813 14.9208L12.0834 15.6958V18.6667H6.91671V15.6958L5.81879 14.9208C4.07504 13.7067 3.04171 11.7304 3.04171 9.62499C3.04171 6.05999 5.93504 3.16666 9.50004 3.16666C13.065 3.16666 15.9584 6.05999 15.9584 9.62499C15.9584 11.7304 14.925 13.7067 13.1813 14.9208Z" fill="#2F2750"/>
</svg>
