<svg width="17" height="17" viewBox="0 0 17 17" fill="none" xmlns="http://www.w3.org/2000/svg">
<path d="M14.5375 15.7625L9.6375 10.8625C9.2 11.2125 8.69687 11.4896 8.12812 11.6937C7.55937 11.8979 6.95417 12 6.3125 12C4.72292 12 3.37775 11.4496 2.277 10.3489C1.17567 9.24754 0.625 7.90208 0.625 6.3125C0.625 4.72292 1.17567 3.37746 2.277 2.27613C3.37775 1.17538 4.72292 0.625 6.3125 0.625C7.90208 0.625 9.24754 1.17538 10.3489 2.27613C11.4496 3.37746 12 4.72292 12 6.3125C12 6.95417 11.8979 7.55937 11.6937 8.12812C11.4896 8.69687 11.2125 9.2 10.8625 9.6375L15.7844 14.5594C15.9448 14.7198 16.025 14.9167 16.025 15.15C16.025 15.3833 15.9375 15.5875 15.7625 15.7625C15.6021 15.9229 15.3979 16.0031 15.15 16.0031C14.9021 16.0031 14.6979 15.9229 14.5375 15.7625ZM6.3125 10.25C7.40625 10.25 8.33608 9.86733 9.102 9.102C9.86733 8.33608 10.25 7.40625 10.25 6.3125C10.25 5.21875 9.86733 4.28892 9.102 3.523C8.33608 2.75767 7.40625 2.375 6.3125 2.375C5.21875 2.375 4.28892 2.75767 3.523 3.523C2.75767 4.28892 2.375 5.21875 2.375 6.3125C2.375 7.40625 2.75767 8.33608 3.523 9.102C4.28892 9.86733 5.21875 10.25 6.3125 10.25Z" fill="#2F2750" fill-opacity="0.57"/>
</svg>
